<svg width="19" height="16" viewBox="0 0 19 16" fill="none" xmlns="http://www.w3.org/2000/svg">
<path d="M1.625 0.5H17.375C17.6071 0.5 17.8296 0.587797 17.9937 0.744078C18.1578 0.900358 18.25 1.11232 18.25 1.33333V14.6667C18.25 14.8877 18.1578 15.0996 17.9937 15.2559C17.8296 15.4122 17.6071 15.5 17.375 15.5H1.625C1.39294 15.5 1.17038 15.4122 1.00628 15.2559C0.842187 15.0996 0.75 14.8877 0.75 14.6667V1.33333C0.75 1.11232 0.842187 0.900358 1.00628 0.744078C1.17038 0.587797 1.39294 0.5 1.625 0.5ZM5.5625 7.375V5.5H4.25V10.5H5.5625V8.625H7.3125V10.5H8.625V5.5H7.3125V7.375H5.5625ZM11.6875 6.75H13C13.116 6.75 13.2273 6.7939 13.3094 6.87204C13.3914 6.95018 13.4375 7.05616 13.4375 7.16667V8.83333C13.4375 8.94384 13.3914 9.04982 13.3094 9.12796C13.2273 9.2061 13.116 9.25 13 9.25H11.6875V6.75ZM10.375 5.5V10.5H13C13.4641 10.5 13.9092 10.3244 14.2374 10.0118C14.5656 9.69928 14.75 9.27536 14.75 8.83333V7.16667C14.75 6.72464 14.5656 6.30072 14.2374 5.98816C13.9092 5.67559 13.4641 5.5 13 5.5H10.375Z" fill="#2C2C2C"/>
</svg>
