<svg width="40" height="30" viewBox="0 0 40 30" fill="none" xmlns="http://www.w3.org/2000/svg">
<path d="M15 15C16.9891 15 18.8968 14.2098 20.3033 12.8033C21.7098 11.3968 22.5 9.48912 22.5 7.5C22.5 5.51088 21.7098 3.60322 20.3033 2.1967C18.8968 0.790177 16.9891 0 15 0C13.0109 0 11.1032 0.790177 9.6967 2.1967C8.29018 3.60322 7.5 5.51088 7.5 7.5C7.5 9.48912 8.29018 11.3968 9.6967 12.8033C11.1032 14.2098 13.0109 15 15 15ZM2.5 30C2.5 30 0 30 0 27.5C0 25 2.5 17.5 15 17.5C27.5 17.5 30 25 30 27.5C30 30 27.5 30 27.5 30H2.5ZM27.5 3.75C27.5 3.41848 27.6317 3.10054 27.8661 2.86612C28.1005 2.6317 28.4185 2.5 28.75 2.5H38.75C39.0815 2.5 39.3995 2.6317 39.6339 2.86612C39.8683 3.10054 40 3.41848 40 3.75C40 4.08152 39.8683 4.39946 39.6339 4.63388C39.3995 4.8683 39.0815 5 38.75 5H28.75C28.4185 5 28.1005 4.8683 27.8661 4.63388C27.6317 4.39946 27.5 4.08152 27.5 3.75ZM28.75 10C28.4185 10 28.1005 10.1317 27.8661 10.3661C27.6317 10.6005 27.5 10.9185 27.5 11.25C27.5 11.5815 27.6317 11.8995 27.8661 12.1339C28.1005 12.3683 28.4185 12.5 28.75 12.5H38.75C39.0815 12.5 39.3995 12.3683 39.6339 12.1339C39.8683 11.8995 40 11.5815 40 11.25C40 10.9185 39.8683 10.6005 39.6339 10.3661C39.3995 10.1317 39.0815 10 38.75 10H28.75ZM33.75 17.5C33.4185 17.5 33.1005 17.6317 32.8661 17.8661C32.6317 18.1005 32.5 18.4185 32.5 18.75C32.5 19.0815 32.6317 19.3995 32.8661 19.6339C33.1005 19.8683 33.4185 20 33.75 20H38.75C39.0815 20 39.3995 19.8683 39.6339 19.6339C39.8683 19.3995 40 19.0815 40 18.75C40 18.4185 39.8683 18.1005 39.6339 17.8661C39.3995 17.6317 39.0815 17.5 38.75 17.5H33.75ZM33.75 25C33.4185 25 33.1005 25.1317 32.8661 25.3661C32.6317 25.6005 32.5 25.9185 32.5 26.25C32.5 26.5815 32.6317 26.8995 32.8661 27.1339C33.1005 27.3683 33.4185 27.5 33.75 27.5H38.75C39.0815 27.5 39.3995 27.3683 39.6339 27.1339C39.8683 26.8995 40 26.5815 40 26.25C40 25.9185 39.8683 25.6005 39.6339 25.3661C39.3995 25.1317 39.0815 25 38.75 25H33.75Z" fill="#FFB347"/>
</svg>
