<svg width="36" height="33" viewBox="0 0 36 33" fill="none" xmlns="http://www.w3.org/2000/svg">
<path d="M32.922 10.4765C31.0431 7.89835 28.4181 6.1757 25.5392 5.39835V5.40226C24.8712 4.66007 24.1173 3.97648 23.2736 3.3671C16.879 -1.28133 7.90244 0.136635 3.23447 6.53117C-0.527256 11.7265 -0.367099 18.7148 3.46884 23.6796L3.50009 28.8593C3.50009 28.9843 3.51962 29.1093 3.55869 29.2265C3.76572 29.8866 4.46884 30.2499 5.12509 30.0429L10.0704 28.4843C11.379 28.9491 12.7306 29.2148 14.0743 29.289L14.0548 29.3046C17.5353 31.8398 22.0978 32.6015 26.2814 31.2187L31.2462 32.8359C31.3712 32.8749 31.5001 32.8984 31.6329 32.8984C32.3244 32.8984 32.8829 32.3398 32.8829 31.6484V26.414C36.3244 21.7421 36.4142 15.2851 32.922 10.4765ZM10.6173 25.7109L10.1485 25.5155L6.28135 26.7265L6.24228 22.664L5.92978 22.3124C2.62509 18.2812 2.40634 12.4726 5.5001 8.21085C9.26573 3.04679 16.4845 1.90617 21.6329 5.63273C26.797 9.38663 27.9415 16.5937 24.2111 21.7265C21.0821 26.0194 15.4806 27.6054 10.6173 25.7109ZM30.3439 25.0468L30.0314 25.4374L30.0704 29.4999L26.2423 28.2109L25.7736 28.4062C23.5861 29.2187 21.254 29.2851 19.0939 28.6796L19.0861 28.6757C21.9728 27.789 24.59 25.9921 26.4767 23.4062C29.4611 19.2929 29.9454 14.1249 28.2111 9.71867L28.2345 9.73429C29.1329 10.3788 29.9572 11.1835 30.6564 12.1562C33.4923 16.0468 33.3322 21.3437 30.3439 25.0468Z" fill="#FFB347"/>
</svg>
