<svg width="10" height="10" viewBox="0 0 10 10" fill="none" xmlns="http://www.w3.org/2000/svg">
<path d="M7.9567 0.833252H2.65253C2.36011 0.833349 2.07698 0.935964 1.8524 1.12324C1.62781 1.31052 1.476 1.57061 1.42336 1.85825L0.894196 4.77492C0.861225 4.9551 0.868256 5.14033 0.914794 5.31749C0.961331 5.49466 1.04624 5.65943 1.1635 5.80015C1.28077 5.94087 1.42753 6.05409 1.5934 6.13181C1.75926 6.20954 1.94019 6.24985 2.12336 6.24992H4.02336L3.79003 6.84575C3.69297 7.10663 3.66065 7.38716 3.69584 7.66328C3.73102 7.9394 3.83266 8.20286 3.99204 8.43107C4.15141 8.65928 4.36377 8.84542 4.61089 8.97352C4.85801 9.10163 5.13252 9.16787 5.41086 9.16658C5.49101 9.16641 5.56942 9.14313 5.63667 9.09953C5.70392 9.05593 5.75717 8.99385 5.79003 8.92075L6.97753 6.24992H7.9567C8.28822 6.24992 8.60616 6.11822 8.84058 5.8838C9.075 5.64938 9.2067 5.33144 9.2067 4.99992V2.08325C9.2067 1.75173 9.075 1.43379 8.84058 1.19937C8.60616 0.964948 8.28822 0.833252 7.9567 0.833252ZM6.29003 5.74575L5.1567 8.29575C5.04073 8.26066 4.93319 8.2022 4.84067 8.12398C4.74816 8.04575 4.67264 7.94941 4.61877 7.84089C4.5649 7.73237 4.53382 7.61398 4.52745 7.49299C4.52107 7.372 4.53953 7.25099 4.5817 7.13741L4.80253 6.54158C4.84959 6.41564 4.86547 6.28019 4.84883 6.14678C4.83219 6.01337 4.78352 5.88596 4.70697 5.77544C4.63043 5.66492 4.52827 5.57456 4.40924 5.51207C4.2902 5.44958 4.15781 5.41682 4.02336 5.41658H2.12336C2.06215 5.41668 2.00167 5.40329 1.94622 5.37737C1.89076 5.35144 1.84171 5.31362 1.80253 5.26658C1.76239 5.2202 1.73299 5.16552 1.71642 5.10646C1.69986 5.0474 1.69654 4.98541 1.7067 4.92492L2.23586 2.00825C2.25361 1.91119 2.30523 1.82357 2.38153 1.761C2.45784 1.69843 2.55387 1.66498 2.65253 1.66658H6.29003V5.74575ZM8.37336 4.99992C8.37336 5.11042 8.32947 5.2164 8.25133 5.29454C8.17318 5.37268 8.0672 5.41658 7.9567 5.41658H7.12336V1.66658H7.9567C8.0672 1.66658 8.17318 1.71048 8.25133 1.78862C8.32947 1.86676 8.37336 1.97274 8.37336 2.08325V4.99992Z" fill="#DFDFE3"/>
</svg>
