<svg width="28" height="6" viewBox="0 0 28 6" fill="none" xmlns="http://www.w3.org/2000/svg">
<path d="M14 0C13.4067 0 12.8266 0.175947 12.3333 0.505591C11.8399 0.835236 11.4554 1.30377 11.2284 1.85195C11.0013 2.40013 10.9419 3.00333 11.0576 3.58527C11.1734 4.16721 11.4591 4.70176 11.8787 5.12132C12.2982 5.54088 12.8328 5.8266 13.4147 5.94236C13.9967 6.05811 14.5999 5.9987 15.1481 5.77164C15.6962 5.54458 16.1648 5.16006 16.4944 4.66671C16.8241 4.17336 17 3.59334 17 3C17 2.20435 16.6839 1.44129 16.1213 0.87868C15.5587 0.316071 14.7957 0 14 0ZM3.5 0C2.90666 0 2.32664 0.175947 1.83329 0.505591C1.33994 0.835236 0.955426 1.30377 0.728363 1.85195C0.5013 2.40013 0.44189 3.00333 0.557646 3.58527C0.673401 4.16721 0.959123 4.70176 1.37868 5.12132C1.79824 5.54088 2.33279 5.8266 2.91473 5.94236C3.49667 6.05811 4.09987 5.9987 4.64805 5.77164C5.19623 5.54458 5.66477 5.16006 5.99441 4.66671C6.32405 4.17336 6.5 3.59334 6.5 3C6.5 2.20435 6.18393 1.44129 5.62132 0.87868C5.05871 0.316071 4.29565 0 3.5 0ZM24.5 0C23.9067 0 23.3266 0.175947 22.8333 0.505591C22.3399 0.835236 21.9554 1.30377 21.7284 1.85195C21.5013 2.40013 21.4419 3.00333 21.5576 3.58527C21.6734 4.16721 21.9591 4.70176 22.3787 5.12132C22.7982 5.54088 23.3328 5.8266 23.9147 5.94236C24.4967 6.05811 25.0999 5.9987 25.6481 5.77164C26.1962 5.54458 26.6648 5.16006 26.9944 4.66671C27.3241 4.17336 27.5 3.59334 27.5 3C27.5 2.20435 27.1839 1.44129 26.6213 0.87868C26.0587 0.316071 25.2957 0 24.5 0Z" fill="#FFF1DC"/>
</svg>
