<svg width="10" height="10" viewBox="0 0 10 10" fill="none" xmlns="http://www.w3.org/2000/svg">
<path d="M8.87516 4.19994C8.75809 4.05937 8.61158 3.94622 8.44599 3.86847C8.2804 3.79071 8.09977 3.75025 7.91683 3.74994H6.01683L6.25016 3.1541C6.34722 2.89322 6.37954 2.61269 6.34436 2.33657C6.30917 2.06045 6.20754 1.79699 6.04816 1.56878C5.88878 1.34058 5.67643 1.15444 5.42931 1.02633C5.18219 0.898225 4.90768 0.831977 4.62933 0.833271C4.54918 0.833438 4.47078 0.856719 4.40353 0.900322C4.33627 0.943925 4.28303 1.006 4.25016 1.0791L3.06266 3.74994H2.0835C1.75198 3.74994 1.43403 3.88163 1.19961 4.11605C0.965192 4.35047 0.833496 4.66842 0.833496 4.99994V7.9166C0.833496 8.24812 0.965192 8.56606 1.19961 8.80048C1.43403 9.0349 1.75198 9.1666 2.0835 9.1666H7.38766C7.68009 9.1665 7.96322 9.06389 8.1878 8.87661C8.41238 8.68933 8.5642 8.42925 8.61683 8.1416L9.146 5.22494C9.17873 5.04468 9.17143 4.85943 9.12463 4.6823C9.07783 4.50517 8.99266 4.3405 8.87516 4.19994ZM2.91683 8.33327H2.0835C1.97299 8.33327 1.86701 8.28937 1.78887 8.21123C1.71073 8.13309 1.66683 8.02711 1.66683 7.9166V4.99994C1.66683 4.88943 1.71073 4.78345 1.78887 4.70531C1.86701 4.62717 1.97299 4.58327 2.0835 4.58327H2.91683V8.33327ZM8.3335 5.07494L7.80433 7.9916C7.78658 8.08867 7.73496 8.17628 7.65866 8.23885C7.58236 8.30142 7.48633 8.33488 7.38766 8.33327H3.75016V4.2541L4.8835 1.7041C5.00016 1.73811 5.1085 1.79594 5.20169 1.87393C5.29488 1.95192 5.37088 2.04838 5.42491 2.15723C5.47894 2.26607 5.50982 2.38493 5.5156 2.50631C5.52138 2.62769 5.50194 2.74895 5.4585 2.86244L5.23766 3.45827C5.19061 3.58421 5.17472 3.71966 5.19136 3.85307C5.208 3.98648 5.25667 4.11389 5.33322 4.22441C5.40977 4.33493 5.51192 4.4253 5.63096 4.48779C5.75 4.55027 5.88239 4.58303 6.01683 4.58327H7.91683C7.97804 4.58317 8.03853 4.59656 8.09398 4.62248C8.14943 4.64841 8.19849 4.68623 8.23767 4.73327C8.2778 4.77965 8.30721 4.83433 8.32377 4.89339C8.34034 4.95245 8.34366 5.01444 8.3335 5.07494Z" fill="#6FD181"/>
</svg>
