<svg width="20" height="20" viewBox="0 0 20 20" fill="none" xmlns="http://www.w3.org/2000/svg">
<path d="M5.29101 18.824L1.15061 19.7443C0.614714 19.8634 0.136638 19.3853 0.255748 18.8494L1.17601 14.709C0.401543 13.2604 -0.00246185 11.6426 1.12865e-05 10C1.12865e-05 4.477 4.47701 0 10 0C15.523 0 20 4.477 20 10C20 15.523 15.523 20 10 20C8.35737 20.0025 6.73963 19.5985 5.29101 18.824ZM5.58101 16.711L6.23401 17.061C7.39256 17.6801 8.6864 18.0027 10 18C11.5823 18 13.129 17.5308 14.4446 16.6518C15.7602 15.7727 16.7855 14.5233 17.391 13.0615C17.9965 11.5997 18.155 9.99113 17.8463 8.43928C17.5376 6.88743 16.7757 5.46197 15.6569 4.34315C14.538 3.22433 13.1126 2.4624 11.5607 2.15372C10.0089 1.84504 8.40035 2.00346 6.93854 2.60896C5.47674 3.21447 4.22731 4.23984 3.34825 5.55544C2.4692 6.87103 2.00001 8.41775 2.00001 10C2.00001 11.334 2.32501 12.618 2.94001 13.766L3.28901 14.419L2.7363 16.9058C2.68866 17.1201 2.87989 17.3113 3.09425 17.2637L5.58101 16.711Z" fill="#FFB347"/>
</svg>
