<svg width="24" height="24" viewBox="0 0 24 24" fill="none" xmlns="http://www.w3.org/2000/svg">
<path d="M16.3283 12.8283C17.4721 11.9284 18.307 10.6944 18.7168 9.29792C19.1266 7.90144 19.0909 6.41196 18.6147 5.0367C18.1386 3.66143 17.2456 2.46877 16.0601 1.62465C14.8745 0.780522 13.4554 0.326904 12 0.326904C10.5446 0.326904 9.12546 0.780522 7.93991 1.62465C6.75437 2.46877 5.8614 3.66143 5.38524 5.0367C4.90909 6.41196 4.87343 7.90144 5.28322 9.29792C5.69301 10.6944 6.52787 11.9284 7.67166 12.8283C5.71175 13.6135 4.00166 14.9159 2.7237 16.5966C1.44574 18.2772 0.64782 20.2732 0.414996 22.3716C0.398143 22.5249 0.411632 22.6799 0.454692 22.8279C0.497753 22.9759 0.569541 23.1139 0.66596 23.2342C0.860685 23.4771 1.14391 23.6326 1.45333 23.6667C1.76275 23.7007 2.07302 23.6104 2.31588 23.4157C2.55874 23.221 2.71429 22.9377 2.74833 22.6283C3.00451 20.3477 4.09196 18.2414 5.80292 16.7119C7.51387 15.1824 9.72838 14.3369 12.0233 14.3369C14.3183 14.3369 16.5328 15.1824 18.2437 16.7119C19.9547 18.2414 21.0421 20.3477 21.2983 22.6283C21.33 22.915 21.4668 23.1798 21.6823 23.3715C21.8977 23.5633 22.1766 23.6684 22.465 23.6667H22.5933C22.8992 23.6315 23.1787 23.4768 23.371 23.2364C23.5633 22.9961 23.6528 22.6894 23.62 22.3833C23.3861 20.2789 22.5838 18.2778 21.2993 16.5946C20.0148 14.9113 18.2964 13.6094 16.3283 12.8283ZM12 12C11.077 12 10.1748 11.7263 9.40734 11.2135C8.63991 10.7007 8.04177 9.9719 7.68856 9.11917C7.33535 8.26645 7.24293 7.32814 7.423 6.4229C7.60306 5.51765 8.04752 4.68613 8.70016 4.03348C9.35281 3.38084 10.1843 2.93638 11.0896 2.75632C11.9948 2.57625 12.9331 2.66867 13.7859 3.02188C14.6386 3.37509 15.3674 3.97323 15.8802 4.74066C16.393 5.50808 16.6667 6.41034 16.6667 7.33332C16.6667 8.57099 16.175 9.75798 15.2998 10.6331C14.4247 11.5083 13.2377 12 12 12Z" fill="#FFB347"/>
</svg>
