<svg width="22" height="22" viewBox="0 0 22 22" fill="none" xmlns="http://www.w3.org/2000/svg">
<path d="M5 12H1C0.734784 12 0.48043 12.1054 0.292893 12.2929C0.105357 12.4804 0 12.7348 0 13V21C0 21.2652 0.105357 21.5196 0.292893 21.7071C0.48043 21.8946 0.734784 22 1 22H5C5.26522 22 5.51957 21.8946 5.70711 21.7071C5.89464 21.5196 6 21.2652 6 21V13C6 12.7348 5.89464 12.4804 5.70711 12.2929C5.51957 12.1054 5.26522 12 5 12ZM4 20H2V14H4V20ZM21 8H17C16.7348 8 16.4804 8.10536 16.2929 8.29289C16.1054 8.48043 16 8.73478 16 9V21C16 21.2652 16.1054 21.5196 16.2929 21.7071C16.4804 21.8946 16.7348 22 17 22H21C21.2652 22 21.5196 21.8946 21.7071 21.7071C21.8946 21.5196 22 21.2652 22 21V9C22 8.73478 21.8946 8.48043 21.7071 8.29289C21.5196 8.10536 21.2652 8 21 8ZM20 20H18V10H20V20ZM13 0H9C8.73478 0 8.48043 0.105357 8.29289 0.292893C8.10536 0.48043 8 0.734784 8 1V21C8 21.2652 8.10536 21.5196 8.29289 21.7071C8.48043 21.8946 8.73478 22 9 22H13C13.2652 22 13.5196 21.8946 13.7071 21.7071C13.8946 21.5196 14 21.2652 14 21V1C14 0.734784 13.8946 0.48043 13.7071 0.292893C13.5196 0.105357 13.2652 0 13 0ZM12 20H10V2H12V20Z" fill="#FFB347"/>
</svg>
