<svg width="21" height="21" viewBox="0 0 21 21" fill="none" xmlns="http://www.w3.org/2000/svg">
<path d="M20.71 19.29L17 15.61C18.4401 13.8144 19.1375 11.5353 18.9488 9.24133C18.7601 6.94733 17.6997 4.81281 15.9855 3.27667C14.2714 1.74053 12.0338 0.919537 9.73292 0.982497C7.43203 1.04546 5.24272 1.98759 3.61514 3.61517C1.98756 5.24275 1.04543 7.43207 0.982466 9.73295C0.919506 12.0338 1.7405 14.2714 3.27664 15.9855C4.81278 17.6997 6.9473 18.7601 9.2413 18.9488C11.5353 19.1375 13.8144 18.4401 15.61 17L19.29 20.68C19.383 20.7738 19.4936 20.8482 19.6154 20.8989C19.7373 20.9497 19.868 20.9758 20 20.9758C20.132 20.9758 20.2627 20.9497 20.3846 20.8989C20.5064 20.8482 20.617 20.7738 20.71 20.68C20.8902 20.4936 20.991 20.2444 20.991 19.985C20.991 19.7257 20.8902 19.4765 20.71 19.29ZM10 17C8.61553 17 7.26215 16.5895 6.111 15.8203C4.95986 15.0511 4.06265 13.9579 3.53284 12.6788C3.00303 11.3997 2.8644 9.99226 3.1345 8.63439C3.4046 7.27653 4.07128 6.02925 5.05025 5.05028C6.02922 4.07131 7.2765 3.40463 8.63436 3.13453C9.99223 2.86443 11.3997 3.00306 12.6788 3.53287C13.9579 4.06268 15.0511 4.95989 15.8203 6.11103C16.5895 7.26218 17 8.61556 17 10C17 11.8565 16.2625 13.637 14.9497 14.9498C13.637 16.2625 11.8565 17 10 17Z" fill="#181B1A"/>
</svg>
