<svg width="11" height="14" viewBox="0 0 11 14" fill="none" xmlns="http://www.w3.org/2000/svg">
<path d="M10.154 7.34664L0.879888 13.235C0.814005 13.2767 0.737464 13.3007 0.658417 13.3043C0.579371 13.3079 0.500778 13.291 0.431011 13.2554C0.361244 13.2199 0.302915 13.1669 0.262237 13.1023C0.221558 13.0376 0.200053 12.9637 0.200012 12.8883V1.11164C0.200053 1.03627 0.221558 0.962327 0.262237 0.897678C0.302915 0.833029 0.361244 0.780099 0.431011 0.744525C0.500778 0.708951 0.579371 0.692065 0.658417 0.695666C0.737464 0.699268 0.814005 0.723221 0.879888 0.764976L10.154 6.65331C10.2139 6.69136 10.2631 6.74291 10.297 6.80338C10.331 6.86386 10.3488 6.93139 10.3488 6.99997C10.3488 7.06856 10.331 7.13609 10.297 7.19657C10.2631 7.25704 10.2139 7.30859 10.154 7.34664Z" fill="#2C2C2C"/>
</svg>
