<svg width="20" height="16" viewBox="0 0 20 16" fill="none" xmlns="http://www.w3.org/2000/svg">
<path d="M4.35283 11.3333H0.949951C0.717887 11.3333 0.495327 11.2455 0.331233 11.0892C0.167138 10.9329 0.0749512 10.721 0.0749512 10.4999V5.49994C0.0749512 5.27892 0.167138 5.06696 0.331233 4.91068C0.495327 4.7544 0.717887 4.6666 0.949951 4.6666H4.35283L8.98507 1.0566C9.04917 1.00656 9.12687 0.974883 9.20913 0.965264C9.2914 0.955645 9.37484 0.968477 9.44974 1.00227C9.52464 1.03606 9.58792 1.08942 9.63222 1.15613C9.67652 1.22284 9.70001 1.30017 9.69995 1.3791V14.6208C9.70001 14.6997 9.67652 14.777 9.63222 14.8437C9.58792 14.9105 9.52464 14.9638 9.44974 14.9976C9.37484 15.0314 9.2914 15.0442 9.20913 15.0346C9.12687 15.025 9.04917 14.9933 8.98507 14.9433L4.3537 11.3333H4.35283ZM16.1802 14.7783L14.9412 13.5983C15.7707 12.8954 16.4343 12.033 16.8883 11.068C17.3422 10.103 17.5763 9.05735 17.5749 7.99994C17.576 6.88835 17.3171 5.79048 16.8171 4.78608C16.317 3.78168 15.5883 2.89597 14.6839 2.19327L15.9264 1.00994C16.9926 1.86956 17.849 2.94034 18.436 4.1476C19.023 5.35486 19.3263 6.66953 19.3249 7.99994C19.3249 10.6858 18.1122 13.1016 16.1802 14.7783ZM13.0801 11.8258L11.8358 10.6408C12.2606 10.3297 12.6046 9.92972 12.8411 9.4718C13.0777 9.01387 13.2004 8.51027 13.2 7.99994C13.2 6.80827 12.5437 5.76244 11.555 5.17327L12.8141 3.9741C13.4768 4.43843 14.0156 5.04481 14.3866 5.7442C14.7577 6.44359 14.9506 7.21634 14.95 7.99994C14.95 9.53494 14.2237 10.9083 13.0801 11.8258Z" fill="#2C2C2C"/>
</svg>
